<svg viewBox="0 0 800 600" xmlns="http://www.w3.org/2000/svg">
  <defs>
    <path id="star" d="M0,-1 L0.2,-0.3 1,-0.2 0.2,0.1 0.4,1 0,0.3 -0.4,1 -0.2,0.1 -1,-0.2 -0.2,-0.3Z"/>
    <!-- シューティングスター用のグラデーション -->
    <linearGradient id="shootingStarGradient" x1="0%" y1="0%" x2="100%" y2="0%">
      <stop offset="0%" stop-color="#ffffff" stop-opacity="0"/>
      <stop offset="50%" stop-color="#ffffff" stop-opacity="1"/>
      <stop offset="100%" stop-color="#ffffff" stop-opacity="0"/>
    </linearGradient>
  </defs>

  <!-- 暗い夜空の背景 -->
  <rect width="100%" height="100%" fill="#1a1b26"/>

  <!-- 回転する星々 -->
  <g id="starField">
    <animateTransform
      attributeName="transform"
      type="rotate"
      from="0 400 300"
      to="360 400 300"
      dur="240s"
      repeatCount="indefinite"/>

    <!-- より多くの星を追加 -->
    <use href="#star" transform="translate(200,100) scale(3)" fill="#c0caf5" opacity="0.8"/>
    <use href="#star" transform="translate(300,200) scale(2)" fill="#c0caf5" opacity="0.6"/>
    <use href="#star" transform="translate(500,250) scale(4)" fill="#c0caf5" opacity="0.7"/>
    <use href="#star" transform="translate(150,300) scale(3)" fill="#c0caf5" opacity="0.5"/>
    <use href="#star" transform="translate(400,150) scale(2)" fill="#c0caf5" opacity="0.9"/>
    <use href="#star" transform="translate(600,400) scale(3)" fill="#c0caf5" opacity="0.7"/>
    <use href="#star" transform="translate(250,450) scale(2)" fill="#c0caf5" opacity="0.6"/>
    <use href="#star" transform="translate(450,350) scale(4)" fill="#c0caf5" opacity="0.8"/>
    <use href="#star" transform="translate(350,100) scale(2)" fill="#c0caf5" opacity="0.7"/>
    <use href="#star" transform="translate(550,150) scale(3)" fill="#c0caf5" opacity="0.6"/>
    <use href="#star" transform="translate(150,200) scale(2)" fill="#c0caf5" opacity="0.8"/>
    <use href="#star" transform="translate(650,300) scale(3)" fill="#c0caf5" opacity="0.7"/>
    <use href="#star" transform="translate(200,400) scale(2)" fill="#c0caf5" opacity="0.5"/>
    <use href="#star" transform="translate(400,450) scale(3)" fill="#c0caf5" opacity="0.6"/>
    <use href="#star" transform="translate(500,500) scale(2)" fill="#c0caf5" opacity="0.8"/>
    <use href="#star" transform="translate(100,350) scale(3)" fill="#c0caf5" opacity="0.7"/>
    <use href="#star" transform="translate(300,500) scale(2)" fill="#c0caf5" opacity="0.6"/>
    <use href="#star" transform="translate(700,200) scale(3)" fill="#c0caf5" opacity="0.8"/>
    <use href="#star" transform="translate(180,280) scale(2)" fill="#c0caf5" opacity="0.7"/>
    <use href="#star" transform="translate(420,380) scale(3)" fill="#c0caf5" opacity="0.6"/>
  </g>

  <!-- キラキラ光る星のエフェクト -->
  <g>
    <use href="#star" transform="translate(300,200) scale(3)" fill="#ffffff">
      <animate
        attributeName="opacity"
        values="0.2;1;0.2"
        dur="3s"
        repeatCount="indefinite"
        begin="0s"/>
    </use>
    <use href="#star" transform="translate(500,300) scale(4)" fill="#ffffff">
      <animate
        attributeName="opacity"
        values="0.2;1;0.2"
        dur="4s"
        repeatCount="indefinite"
        begin="2s"/>
    </use>
    <use href="#star" transform="translate(200,400) scale(3)" fill="#ffffff">
      <animate
        attributeName="opacity"
        values="0.2;1;0.2"
        dur="5s"
        repeatCount="indefinite"
        begin="1s"/>
    </use>
  </g>

  <!-- 流れ星 -->
  <g>
    <!-- 流れ星1 -->
    <line x1="0" y1="0" x2="50" y2="0" stroke="url(#shootingStarGradient)" stroke-width="2">
      <animateMotion
        path="M 800,100 L -100,100"
        dur="3s"
        repeatCount="indefinite"
        begin="0s"/>
    </line>

    <!-- 流れ星2 -->
    <line x1="0" y1="0" x2="50" y2="0" stroke="url(#shootingStarGradient)" stroke-width="2">
      <animateMotion
        path="M 800,200 L -100,200"
        dur="4s"
        repeatCount="indefinite"
        begin="2s"/>
    </line>

    <!-- 流れ星3 -->
    <line x1="0" y1="0" x2="50" y2="0" stroke="url(#shootingStarGradient)" stroke-width="2">
      <animateMotion
        path="M 800,300 L -100,300"
        dur="5s"
        repeatCount="indefinite"
        begin="1s"/>
    </line>
  </g>
</svg>